<?xml version="1.0" encoding="UTF-8" standalone="no"?>
<svg
   xmlns:dc="http://purl.org/dc/elements/1.1/"
   xmlns:cc="http://creativecommons.org/ns#"
   xmlns:rdf="http://www.w3.org/1999/02/22-rdf-syntax-ns#"
   xmlns:svg="http://www.w3.org/2000/svg"
   xmlns="http://www.w3.org/2000/svg"
   xmlns:sodipodi="http://sodipodi.sourceforge.net/DTD/sodipodi-0.dtd"
   xmlns:inkscape="http://www.inkscape.org/namespaces/inkscape"
   width="210mm"
   height="297mm"
   viewBox="0 0 210 297"
   version="1.1"
   id="svg156"
   sodipodi:docname="oil_and_rope_logo.svg"
   inkscape:export-filename="C:\Users\suso_\Documents\GitHub\oil-and-rope\core\static\img\oil_and_rope_logo.png"
   inkscape:export-xdpi="96"
   inkscape:export-ydpi="96"
   inkscape:version="1.0 (4035a4fb49, 2020-05-01)">
  <sodipodi:namedview
     inkscape:document-rotation="0"
     pagecolor="#ffffff"
     bordercolor="#666666"
     borderopacity="1"
     objecttolerance="10"
     gridtolerance="10"
     guidetolerance="10"
     inkscape:pageopacity="0"
     inkscape:pageshadow="2"
     inkscape:window-width="2256"
     inkscape:window-height="1470"
     id="namedview1184"
     showgrid="false"
     inkscape:zoom="0.53249409"
     inkscape:cx="220.14652"
     inkscape:cy="830.38842"
     inkscape:window-x="-11"
     inkscape:window-y="-11"
     inkscape:window-maximized="1"
     inkscape:current-layer="layer1" />
  <defs
     id="defs150" />
  <metadata
     id="metadata153">
    <rdf:RDF>
      <cc:Work
         rdf:about="">
        <dc:format>image/svg+xml</dc:format>
        <dc:type
           rdf:resource="http://purl.org/dc/dcmitype/StillImage" />
        <dc:title />
      </cc:Work>
    </rdf:RDF>
  </metadata>
  <g
     id="layer1">
    <path
       inkscape:export-ydpi="96"
       inkscape:export-xdpi="96"
       style="fill:#241b05;stroke-width:0.585817"
       d="m 23.752254,293.72554 c -0.709466,-0.13982 -2.093463,-1.16935 -3.075547,-2.28787 l -1.78561,-2.03371 0.0085,-7.4488 c 0.01063,-9.33857 0.8965,-12.3695 5.154012,-17.63523 2.310838,-2.85805 8.019499,-6.80936 10.683056,-7.39438 0.950932,-0.20885 1.728966,-0.49243 1.728966,-0.63015 0,-0.13766 -3.671813,-7.59041 -8.159591,-16.56154 -4.487773,-8.97113 -8.605834,-17.84619 -9.151252,-19.72236 -1.714794,-5.89869 -0.948007,-13.90619 2.382812,-24.88356 1.515344,-4.99411 3.61905,-11.97998 4.674907,-15.52419 1.055853,-3.5442 3.02778,-10.00286 4.382058,-14.35255 1.354278,-4.34971 3.602025,-11.73103 4.995001,-16.40293 1.392973,-4.6719 3.099885,-10.3397 3.793134,-12.59509 1.480134,-4.81543 4.333285,-14.16635 7.328529,-24.01857 1.175458,-3.8664 3.063369,-10.06143 4.195369,-13.76673 1.131999,-3.705305 2.733152,-8.977673 3.558114,-11.716374 0.824963,-2.7387 1.989598,-6.538804 2.588073,-8.444667 0.598476,-1.905864 1.088138,-3.817098 1.088138,-4.247187 0,-0.610768 -1.618304,-0.781975 -7.391658,-0.781975 h -7.391648 l -2.274299,-2.274351 c -1.914248,-1.914246 -2.274355,-2.660902 -2.274355,-4.71564 0,-2.611961 1.053385,-5.170145 2.687427,-6.526501 0.650201,-0.539711 2.999965,-0.939888 6.629084,-1.128972 l 5.621863,-0.292911 0.322362,-4.686545 c 0.185157,-2.691879 0.771656,-5.615416 1.377996,-6.868952 1.708162,-3.531405 5.430481,-7.303548 8.865477,-8.984136 2.884687,-1.411342 4.201228,-1.623934 13.306537,-2.148691 5.557809,-0.320306 10.198393,-0.668181 10.312409,-0.773057 0.114016,-0.104866 -1.028284,-3.898055 -2.53843,-8.429295 C 83.88351,21.91739 82.735751,17.981225 82.843083,17.701597 83.247807,16.647201 102.22435,2.9105079 102.9118,3.1743023 c 1.44677,0.5551811 19.20485,13.4997167 19.47092,14.1931017 0.21362,0.556682 -3.34794,12.910025 -4.94722,17.159513 -0.24375,0.647693 0.63963,0.713879 4.84859,0.363275 3.45256,-0.287595 5.02513,-0.232112 4.7775,0.16857 -0.23878,0.386346 1.85298,0.68351 5.92305,0.841445 8.08017,0.313537 11.17753,1.583334 15.65259,6.416931 3.63869,3.930221 4.99214,7.429387 4.99214,12.906489 v 3.408586 h 6.45261 6.45261 l 2.18822,2.005349 c 2.03258,1.862724 2.18821,2.240914 2.18821,5.317385 0,3.076465 -0.15563,3.454658 -2.18821,5.317381 l -2.18822,2.005349 h -8.86421 c -8.16709,0 -8.84035,0.08062 -8.56092,1.025185 0.31524,1.065626 7.00523,22.925265 11.07089,36.174298 1.28533,4.1886 2.55619,8.4065 2.82414,9.37309 0.65686,2.36956 2.33487,7.93599 4.94471,16.40293 2.47607,8.03296 4.20067,13.7039 8.8186,28.99802 4.9688,16.45615 6.98051,22.981 9.75334,31.6342 2.32058,7.2418 2.53489,8.42714 2.54225,14.05964 0.005,3.55404 -0.34165,7.38779 -0.82015,9.0802 -0.4555,1.611 -4.47567,10.24269 -8.93373,19.18152 -4.45807,8.93883 -8.10558,16.38605 -8.10558,16.54937 0,0.1634 0.73967,0.29694 1.64371,0.29694 0.90404,0 3.34251,0.56924 5.41882,1.26494 3.19345,1.07003 4.4601,1.95008 8.22081,5.71173 5.7643,5.76573 6.45796,7.62429 6.82927,18.29792 l 0.27805,7.99292 -2.07006,2.2589 -2.07006,2.2589 -82.20613,0.0707 c -45.21338,0.0389 -82.786618,-0.0437 -83.496086,-0.18351 z M 178.45679,277.28901 c -0.61804,-2.5854 -1.34883,-3.65052 -3.33597,-4.86217 -1.81939,-1.10936 -3.55733,-1.13815 -68.82539,-1.14029 -58.262407,-0.002 -67.178722,0.11142 -68.651669,0.8732 -2.187712,1.13131 -3.521379,3.06784 -3.521379,5.11315 v 1.62709 h 72.359758 72.35975 z m -15.74918,-38.22076 c 4.67298,-9.34168 8.49632,-17.11841 8.49632,-17.28165 0,-0.16323 -2.17485,-0.31557 -4.833,-0.33851 -2.65815,-0.0229 -6.90616,-0.23012 -9.44,-0.46046 -4.15778,-0.37795 -4.76473,-0.5953 -6.2246,-2.22917 -0.88968,-0.99573 -1.72151,-2.12215 -1.84851,-2.50317 -0.13884,-0.41648 -7.40355,3.40942 -18.21661,9.59359 -9.89212,5.65751 -18.12946,10.28637 -18.3052,10.28637 -0.17573,0 0.96654,-1.64762 2.53839,-3.66137 1.57184,-2.01376 6.73807,-8.80193 11.4805,-15.08483 4.74243,-6.2829 8.86088,-11.50997 9.15213,-11.61568 0.29123,-0.10578 3.43342,1.1303 6.98265,2.74673 3.54923,1.61643 6.45315,2.71172 6.45315,2.43399 0,-1.1577 3.08857,-4.0517 4.70238,-4.40616 l 1.74162,-0.38253 v -21.14055 c 0,-11.62732 -0.10593,-21.03073 -0.2354,-20.89648 -0.37823,0.3922 -16.54536,35.2709 -16.96741,36.60523 -0.34144,1.07948 0.33186,1.52469 6.15631,4.07078 3.59683,1.57232 6.27653,2.94647 5.9549,3.05368 -0.32163,0.10727 -3.49987,-1.1974 -7.06277,-2.89914 l -6.478,-3.09406 6.96447,-15.23128 c 3.83045,-8.37722 8.29066,-17.86748 9.91157,-21.08947 l 2.94711,-5.85819 -0.31926,23.28628 -0.31926,23.28629 h 8.84353 c 8.15293,0 8.81873,-0.08 8.52578,-1.02518 -1.05688,-3.40975 -12.28308,-40.30573 -18.22554,-59.89995 -9.91572,-32.69531 -19.29515,-63.550077 -20.47929,-67.369132 l -1.36231,-4.393641 -29.53642,-0.151778 -29.536422,-0.151761 -2.681246,8.939039 c -1.474682,4.916479 -4.849128,16.056746 -7.498766,24.756143 -2.649636,8.6994 -6.340205,20.82585 -8.20126,26.94766 -1.861057,6.12181 -5.274722,17.32558 -7.585922,24.89728 -10.328875,33.83834 -13.671161,44.9043 -13.933768,46.13322 -0.274659,1.28532 -0.158337,1.31809 4.680157,1.31809 2.728999,0 6.579138,0.16905 8.555867,0.37566 l 3.594049,0.37565 0.153256,-23.31905 0.153256,-23.31906 9.592195,20.64465 c 5.278996,11.36164 9.361962,20.85511 9.080185,21.1127 -0.281602,0.25744 -3.353305,1.72445 -6.826007,3.26005 -3.472703,1.53559 -6.414046,2.95385 -6.536326,3.15171 -0.122285,0.19786 0.255882,0.95031 0.840354,1.6721 l 1.062685,1.31236 6.266745,-2.92631 c 3.44671,-1.60944 6.49231,-2.92628 6.768011,-2.92628 0.37918,0 17.876547,22.54583 23.317964,30.04581 0.658742,0.90796 0.398568,0.85149 -1.464546,-0.3179 -7.966424,-5.00016 -34.339127,-19.74765 -34.802397,-19.46133 -0.309071,0.19102 -0.56195,0.67785 -0.56195,1.08186 0,0.404 -0.807411,1.50883 -1.794244,2.45514 l -1.794252,1.72061 -9.315018,0.18648 -9.315017,0.18647 8.614918,17.24164 8.614915,17.24162 h 50.529524 50.52951 z m -72.619573,-15.8819 c -7.617474,-9.70514 -13.745222,-17.75043 -13.617209,-17.87844 0.128015,-0.12803 12.502964,-0.16423 27.499892,-0.0804 l 27.26716,0.15228 -7.66018,9.95893 c -4.21309,5.4774 -10.35556,13.45415 -13.64994,17.72613 l -5.98977,7.76722 z m 28.047283,-1.88557 c 6.37213,-8.32004 11.47025,-15.2428 11.32916,-15.38389 -0.14109,-0.14115 -11.87466,-0.18786 -26.07459,-0.10395 l -25.818072,0.15261 9.354745,12.00929 c 5.145105,6.60511 11.063517,14.19338 13.152027,16.86283 l 3.79729,4.85353 1.33687,-1.63155 c 0.7353,-0.89734 6.55045,-8.43886 12.92257,-16.7589 z M 75.227324,201.10884 c 0.198224,-0.47011 24.377748,-44.00537 27.009326,-48.63034 l 1.43436,-2.52085 5.64415,10.13649 c 3.10429,5.57508 6.02469,10.79555 6.48978,11.60105 1.32355,2.2923 15.83298,28.8688 16.05151,29.40112 0.1074,0.26159 -12.63415,0.47564 -28.31456,0.47564 -15.680415,0 -28.421968,-0.2084 -28.314566,-0.46311 z m 54.772946,-0.90271 c 0.25903,-0.25903 -9.0959,-17.94971 -14.61207,-27.6322 -0.36712,-0.64441 -2.32568,-4.07145 -4.35236,-7.61564 -2.02667,-3.54421 -4.4101,-7.82739 -5.2965,-9.51816 -0.88639,-1.6908 -1.78681,-3.0748 -2.00092,-3.07556 -0.21409,-4.3e-4 -1.02139,1.11899 -1.79399,2.48834 -8.549881,15.1539 -24.561376,43.92842 -24.822543,44.60901 -0.264716,0.68983 0.322494,0.92817 2.790545,1.13264 4.466254,0.37003 49.680008,0.0194 50.087838,-0.38843 z m -59.154271,-6.29378 c -1.102338,-2.39232 -4.910899,-10.67653 -8.463463,-18.40933 -3.552569,-7.73281 -7.381715,-16.0368 -8.509214,-18.45328 -1.996972,-4.27999 -2.017543,-4.39709 -0.7951,-4.52652 1.701349,-0.18016 14.694919,-1.10426 31.890451,-2.26808 7.827946,-0.52979 14.373651,-0.82226 14.546018,-0.64987 0.249836,0.24982 -21.532578,40.14359 -25.631514,46.94327 l -1.032922,1.71349 z m 9.735885,-10.94015 c 4.031009,-7.33005 8.185117,-14.90908 9.231347,-16.84229 1.046232,-1.93319 3.010759,-5.49204 4.365613,-7.90855 1.354858,-2.4165 2.89217,-5.231 3.416252,-6.25447 l 0.952875,-1.86084 -3.068315,0.2606 c -3.898626,0.33112 -26.000457,1.88219 -32.94507,2.31203 -5.682293,0.35172 -9.080189,0.77562 -9.080189,1.13281 0,0.12288 0.890067,2.15406 1.977923,4.51354 1.087862,2.3595 5.331973,11.6713 9.431361,20.69289 7.702239,16.95049 7.859198,17.28166 8.190479,17.28166 0.109233,0 3.496712,-5.99731 7.527724,-13.32738 z m 53.129656,14.64124 c 0,-0.24397 -5.89046,-11.11824 -13.08992,-24.16501 -10.95351,-19.84986 -12.91251,-23.75213 -12.00293,-23.90947 0.98512,-0.17041 9.27468,0.35014 37.2728,2.34048 7.4293,0.52815 9.50594,0.85288 9.37309,1.46567 -0.0939,0.43295 -4.78398,10.66204 -10.42249,22.7313 -8.98431,19.23097 -11.13055,23.38382 -11.13055,21.53703 z m 1.80285,-3.21777 c 0.42534,-1.04715 4.80564,-10.58273 9.734,-21.19019 4.92835,-10.60745 8.8237,-19.42322 8.65632,-19.59061 -0.32249,-0.32248 -44.37336,-3.56257 -44.69044,-3.28711 -0.28127,0.24434 24.73466,45.94181 25.15848,45.95787 0.20255,0.008 0.71629,-0.84281 1.14164,-1.88996 z M 55.301552,148.56459 c 0.111774,-0.11109 1.784922,-1.10902 3.718122,-2.21773 1.933202,-1.10869 12.045042,-6.95002 22.470747,-12.98075 10.425713,-6.03071 19.328389,-11.10791 19.783729,-11.28263 0.69973,-0.26852 0.8033,1.52903 0.66908,11.61256 l -0.1588,11.93023 -19.039104,1.25592 c -10.471506,0.69073 -20.975877,1.3973 -23.343043,1.57012 -2.367166,0.1728 -4.212495,0.22333 -4.100734,0.11225 z m 13.677041,-1.75466 c 2.2554,-0.17637 8.71405,-0.58032 14.352554,-0.89764 5.638505,-0.31734 11.899443,-0.73995 13.913193,-0.93912 l 3.66136,-0.36212 v -10.53917 c 0,-9.3304 -0.10534,-10.49874 -0.918517,-10.1867 -0.505186,0.19386 -7.161549,3.99692 -14.791921,8.45125 -7.630368,4.45433 -16.575484,9.62409 -19.878038,11.48838 -3.30255,1.86428 -6.004639,3.51834 -6.004639,3.67568 0,0.15726 1.252188,0.13849 2.782638,-0.0418 1.530449,-0.18037 4.627966,-0.47227 6.88337,-0.64864 z m 73.520227,1.42869 c -3.0609,-0.24347 -12.02393,-0.88464 -19.91783,-1.42482 -7.8939,-0.54017 -14.94569,-1.09926 -15.67064,-1.24245 -1.31425,-0.25955 -1.3181,-0.29445 -1.3181,-11.96552 0,-6.43786 0.14087,-11.70522 0.31305,-11.70522 0.35588,0 39.58781,22.72796 43.62334,25.272 l 2.63619,1.66188 -2.05037,-0.0765 c -1.12769,-0.0422 -4.55473,-0.27581 -7.61564,-0.51929 z m 4.39364,-1.54443 c -1.80014,-0.95824 -35.33024,-20.4538 -38.86887,-22.59969 l -1.9623,-1.18998 0.20485,10.58039 c 0.11267,5.81922 0.33709,10.71237 0.49872,10.87366 0.16165,0.16125 4.64315,0.60869 9.95892,0.9942 5.31577,0.38552 13.6193,1.03059 18.45231,1.43352 4.833,0.40291 9.84175,0.75751 11.13055,0.788 l 2.34328,0.0555 -1.75746,-0.93551 z m -13.47383,76.83054 c 15.88848,-9.08903 15.5242,-8.8492 15.5242,-10.22094 0,-1.5112 -12.80534,-7.40538 -13.77693,-6.34139 -0.38201,0.41835 -5.25301,6.79121 -10.82442,14.16191 -9.55636,12.64259 -9.98413,13.31752 -7.55616,11.92226 1.41551,-0.81345 8.90051,-5.09829 16.63331,-9.52184 z m -45.254537,4.26259 c -2.539317,-3.30254 -7.181141,-9.35715 -10.315154,-13.45465 -3.13402,-4.09752 -5.898936,-7.57407 -6.144264,-7.7257 -0.245327,-0.15161 -3.199818,0.979 -6.565526,2.5125 -8.934826,4.07093 -9.131468,3.71562 7.354355,13.28876 7.410604,4.30328 14.791918,8.61614 16.40292,9.58418 1.611003,0.96803 3.144089,1.76895 3.406859,1.77981 0.262767,0.0116 -1.599865,-2.68234 -4.13919,-5.9849 z M 62.489254,204.92336 c 3.794052,-1.70092 6.88347,-3.34854 6.865373,-3.66136 -0.08874,-1.53379 -16.834792,-36.35778 -17.209351,-35.78744 -0.236716,0.36045 -0.43443,9.68354 -0.439364,20.71797 l -0.009,20.06261 1.903909,0.83262 c 1.047154,0.45794 1.92331,0.85412 1.947018,0.88041 0.02373,0.0264 3.147331,-1.34388 6.941385,-3.04481 z M 138.39809,55.895705 c 0,-5.234525 2.5242,-4.879132 -34.65409,-4.879132 -31.933953,0 -32.743015,0.02795 -33.88668,1.171638 -0.824484,0.824484 -1.171638,1.952727 -1.171638,3.807818 v 2.636184 h 34.856208 34.8562 z M 112.82438,27.224897 c 1.23897,-4.058636 2.02982,-7.575613 1.75746,-7.815501 -1.05765,-0.931536 -10.92615,-7.748171 -11.58074,-7.99936 -0.97068,-0.372485 -12.801575,8.457423 -12.485291,9.318303 0.142346,0.387419 1.241999,3.6701 2.44369,7.294853 l 2.184891,6.590459 7.71366,-0.0046 7.71366,-0.0046 2.25267,-7.379338 z"
       id="path26" />
    <path
       inkscape:export-ydpi="96"
       inkscape:export-xdpi="96"
       transform="scale(0.26458333)"
       id="path34"
       d="m 108.11479,1109.6594 c -12.285857,-0.3154 -20.426399,-0.915 -21.59648,-1.5908 -1.032876,-0.5964 -4.779804,-4.0928 -8.326509,-7.7696 l -6.448553,-6.6851 0.503613,-27.442 c 0.525838,-28.653 1.198414,-34.2661 5.379487,-44.8953 2.748587,-6.9875 11.407683,-19.7637 17.574389,-25.93044 10.607613,-10.60763 29.495913,-22.63922 38.064753,-24.24675 1.88167,-0.35296 3.81512,-1.12574 4.29657,-1.7173 0.58355,-0.717 -7.3836,-17.82132 -23.90039,-51.3108 -26.237128,-53.19838 -38.686572,-79.88369 -41.112651,-88.1247 -4.835592,-16.42575 -3.590471,-41.36194 3.53717,-70.83936 2.480469,-10.25835 18.314808,-63.52787 35.922971,-120.85125 5.94883,-19.36641 18.35311,-60.14151 27.56506,-90.61133 9.21195,-30.46983 30.53416,-100.61145 47.38268,-155.87028 34.23134,-112.27006 34.10819,-111.84031 32.51015,-113.44039 -0.79346,-0.79449 -8.89657,-1.20064 -28.19743,-1.41332 l -27.08399,-0.29846 -7.14818,-7.34542 c -3.9315,-4.03999 -7.77973,-8.85696 -8.55163,-10.70438 -3.68807,-8.82678 0.99989,-26.20226 8.60918,-31.90916 3.21698,-2.41271 14.19553,-4.12468 31.48616,-4.9099 l 14.73795,-0.66929 0.46078,-4.79669 c 0.25343,-2.63817 0.90641,-9.65589 1.45106,-15.59492 1.86936,-20.38413 5.57848,-28.71018 18.84757,-42.30818 12.1106,-12.41078 22.52801,-18.16629 37.08961,-20.49163 3.61507,-0.57729 19.88285,-1.89527 36.15064,-2.92886 27.93704,-1.775 35.68115,-2.47466 35.68115,-3.22369 0,-0.992 -5.536,-19.14741 -10.31552,-33.829923 -3.03243,-9.315544 -6.36347,-20.007023 -7.40229,-23.75884 l -1.88879,-6.821485 2.52623,-2.415717 c 6.45291,-6.170648 55.64207,-42.041533 67.53443,-49.249054 4.10287,-2.486602 5.39124,-2.86366 7.09232,-2.075667 4.52402,2.095664 55.03996,38.604022 65.79197,47.548491 5.42956,4.516789 5.49555,4.630687 4.89663,8.450798 -0.82224,5.244488 -9.92887,36.931767 -14.59018,50.767727 -2.87573,8.5359 -3.4985,11.39181 -2.60752,11.95758 1.38718,0.88089 6.71571,0.8613 21.35855,-0.0785 9.33392,-0.59907 11.32605,-0.46396 14.69042,0.99634 2.78043,1.20686 8.27865,1.96717 19.24904,2.66182 8.44627,0.53483 18.1445,1.38336 21.55162,1.88562 18.1924,2.68188 30.69957,10.34201 44.15128,27.04087 11.09942,13.77873 14.86908,25.29193 14.8966,45.49684 l 0.0163,11.97194 h 24.71803 24.71803 l 7.13814,6.80759 c 7.9936,7.62345 9.14021,10.18374 9.14899,20.42896 0.008,9.47057 -1.06663,11.81762 -9.12188,19.92039 l -7.26093,7.30376 h -30.71242 c -30.01706,0 -35.5317,0.47008 -35.52767,3.02844 9.4e-4,0.65833 9.31682,31.61983 20.70174,68.80334 11.38492,37.18352 25.57154,83.87417 31.52582,103.75702 5.95428,19.88285 15.61501,51.78462 21.46827,70.89281 5.85326,19.10819 14.09435,46.15075 18.31353,60.09456 21.25973,70.26055 37.68491,123.9134 45.70563,149.29743 13.31642,42.14397 12.96731,40.38563 12.86345,64.78945 -0.0607,14.27814 -0.53045,22.97728 -1.52096,28.16933 -1.844,9.66599 -8.82008,25.06538 -40.69174,89.82533 -13.63924,27.71354 -24.79862,50.7874 -24.79862,51.2753 0,0.4878 2.6215,1.16095 5.82557,1.49588 8.60203,0.89907 19.94177,4.12718 28.44711,8.09812 8.54262,3.98831 18.50118,12.28943 29.49156,24.58325 16.2233,18.1474 18.08885,24.3786 19.88712,66.4263 l 1.08609,25.3951 -3.06269,3.5411 c -1.68448,1.9476 -5.35761,5.9707 -8.16253,8.9402 l -5.09985,5.3991 -293.59874,-0.198 c -161.4793,-0.1089 -302.47208,-0.4258 -313.31727,-0.7043 z m 568.1437,-56.6101 c -0.19154,-0.6455 -0.87851,-3.2864 -1.5266,-5.8686 -1.70325,-6.7863 -4.04728,-11.0231 -8.03659,-14.5258 -5.98243,-5.2526 -8.18795,-5.7233 -31.52734,-6.729 -28.96789,-1.2482 -478.76812,-0.4408 -487.01979,0.8741 -11.24151,1.7914 -18.69389,9.8751 -19.60852,21.2695 l -0.49395,6.1536 h 274.28053 c 218.98418,0 274.21032,-0.2367 273.93226,-1.1738 z m -60.65293,-149.962 c 17.78925,-35.6124 32.07381,-65.0201 31.74347,-65.35044 -0.33034,-0.33035 -11.12852,-0.97052 -23.99595,-1.42261 -23.63799,-0.8305 -38.21544,-2.05318 -44.47415,-3.73024 -3.65937,-0.98055 -9.89626,-6.6091 -13.74144,-12.40111 -1.2857,-1.93664 -2.76774,-3.52117 -3.29345,-3.52117 -1.5109,0 -31.39621,15.60271 -50.24241,26.23087 -9.4463,5.32716 -17.38364,9.4772 -17.63854,9.22231 -0.2549,-0.2549 7.89644,-5.24713 18.11407,-11.09385 46.61254,-26.67254 50.97226,-29.56247 50.97226,-33.78798 0,-3.43213 -3.41996,-6.2284 -15.69334,-12.83141 -5.05426,-2.71917 -8.83052,-4.94987 -8.39169,-4.95711 0.43884,-0.008 5.55041,1.88825 11.35904,4.21222 5.80864,2.32397 11.03739,4.2254 11.61946,4.2254 0.58207,0 1.66606,-1.17529 2.40889,-2.61174 1.6543,-3.19906 9.6095,-10.75511 13.37137,-12.70045 1.51923,-0.78562 4.33217,-1.72293 6.25097,-2.08289 l 3.48871,-0.65449 v -79.18368 c 0,-52.18233 -0.32267,-79.38312 -0.94625,-79.76851 -1.05364,-0.65118 -2.38025,2.08273 -32.57988,67.14139 -25.77888,55.53513 -32.2023,69.94932 -32.2023,72.26218 0,0.97951 1.37326,2.86323 3.05168,4.18602 1.67842,1.3228 2.71794,2.40977 2.31004,2.4155 -0.67274,0.009 -8.18492,-3.56459 -8.98259,-4.27362 -0.36525,-0.32465 13.96971,-31.91026 38.10596,-83.96259 16.9283,-36.50763 34.12277,-71.63005 34.75673,-70.99609 0.22158,0.22157 -0.0564,30.3319 -0.61782,66.91185 -0.56137,36.57994 -1.01999,75.27668 -1.01914,85.99276 l 0.002,19.48379 29.34305,-0.0224 c 25.87485,-0.0197 35.41486,-0.57204 36.98387,-2.14106 0.3704,-0.37036 -49.25018,-164.19591 -137.13836,-452.77112 l -14.29871,-46.94888 -44.53509,-0.56968 c -24.4943,-0.31332 -74.97601,-0.63022 -112.18157,-0.70423 l -67.64647,-0.13456 -12.96744,42.95823 c -7.13209,23.62702 -39.71538,130.84652 -72.40731,238.26555 -67.00143,220.15305 -65.25097,214.30196 -65.25097,218.10814 0,3.7009 1.05024,3.92816 18.31006,3.96209 13.00473,0.0255 29.53203,0.9958 41.54976,2.4392 l 4.92963,0.59208 0.12942,-67.47984 c 0.0712,-37.1139 0.38808,-76.09018 0.70423,-86.61394 l 0.57482,-19.1341 15.42228,33.21877 c 25.88979,55.7652 37.6896,81.86664 37.40113,82.73206 -0.15141,0.45423 -3.81628,-6.69759 -8.14415,-15.89292 -13.44712,-28.57077 -40.47153,-82.7014 -41.86598,-83.85869 -1.07727,-0.89406 -1.46144,-0.59943 -2.03843,1.56337 -0.39105,1.46578 -0.72536,36.38903 -0.74292,77.60722 l -0.0319,74.94219 7.29495,3.21877 7.29495,3.21879 15.24051,-6.6842 c 20.26728,-8.88884 33.25829,-15.45577 36.00088,-18.19836 1.23452,-1.23453 2.24459,-1.87581 2.24459,-1.42508 0,0.45072 0.22897,1.41617 0.50881,2.14544 0.5228,1.36241 -4.34125,3.83956 -35.57452,18.11735 -7.66629,3.50452 -14.15111,6.92538 -14.41072,7.6019 -0.48038,1.25186 1.92069,5.55324 5.38571,9.64822 1.87844,2.21994 1.98662,2.2346 5.19584,0.70423 5.04791,-2.40719 5.88152,-1.86126 2.0192,1.32239 -5.10278,4.20615 -4.80562,7.03486 1.3173,12.5399 5.62742,5.05952 12.26801,9.22777 45.68474,28.67592 13.57429,7.90008 24.49273,14.55155 24.26323,14.78106 -0.2295,0.2295 -11.75827,-5.8955 -25.61949,-13.61112 -40.35367,-22.46222 -49.16907,-26.93592 -50.91792,-25.84021 -0.83305,0.52193 -1.6556,1.9018 -1.82787,3.06636 -0.17228,1.16457 -3.34133,5.26255 -7.04233,9.10662 l -6.7291,6.98922 -34.4863,0.71388 c -18.96746,0.39262 -34.79934,1.02691 -35.18195,1.40952 -0.38261,0.38261 13.86615,29.82906 31.66392,65.43656 l 32.35958,64.74091 H 391.6926 583.26147 l 32.3441,-64.74982 z m -91.9932,-691.46997 c 0,-16.22016 -1.04228,-16.92887 -27.14694,-18.45889 -18.27944,-1.07137 -190.0542,-1.09805 -212.16337,-0.033 -13.97421,0.67321 -16.65691,1.04908 -18.77955,2.63113 -4.53099,3.37704 -5.89913,7.00979 -6.45771,17.14669 l -0.51718,9.38564 H 391.07999 523.61236 Z M 421.27239,121.644 c 6.14497,-19.77934 11.27446,-38.593628 11.84455,-43.444234 l 0.59001,-5.019977 -7.37986,-5.457657 c -14.21193,-10.510219 -35.90798,-24.7779 -37.67835,-24.7779 -3.8006,0 -29.8985,18.162574 -41.71678,29.032368 l -5.7714,5.308208 8.72253,26.257422 c 4.79739,14.44159 8.90174,26.57433 9.12078,26.96166 0.21903,0.38733 13.65051,0.70423 29.84771,0.70423 h 29.44946 z"
       style="fill:#171817;stroke-width:0.938978" />
    <path
       inkscape:export-ydpi="96"
       inkscape:export-xdpi="96"
       transform="scale(0.26458333)"
       id="path36"
       d="m 566.64865,562.09039 c -5.19139,-0.25622 -12.47177,-0.7606 -28.52145,-1.97595 -11.81982,-0.89505 -31.39541,-2.30361 -57.04288,-4.10452 -32.98543,-2.31616 -41.64898,-2.93644 -50.93954,-3.64705 -12.80672,-0.97955 -23.50722,-1.9176 -25.55811,-2.24051 -2.08485,-0.32827 -2.92693,-0.73457 -3.52371,-1.70019 -1.39802,-2.26204 -1.66013,-6.54971 -1.82513,-29.85538 -0.17869,-25.23984 0.34137,-55.15644 0.99461,-57.21545 0.11767,-0.37088 0.23812,-0.35232 1.34692,0.20754 8.40108,4.24186 135.94233,78.11195 159.48774,92.37304 4.52284,2.73941 12.75124,7.90245 13.08163,8.20827 0.25529,0.23631 -2.00765,0.22128 -7.50008,-0.0498 z m -4.81595,-4.14523 c -0.002,-0.0968 -1.13386,-0.75705 -2.51519,-1.46715 -7.30667,-3.75615 -123.00689,-70.90211 -150.74463,-87.48379 -4.18254,-2.50033 -7.65595,-4.49471 -7.7187,-4.43197 -0.16641,0.16642 0.70244,44.63517 1.12397,57.5257 0.43407,13.27425 1.00024,22.59932 1.41967,23.38304 0.44296,0.82767 12.03845,2.0594 37.31046,3.96329 6.90735,0.52038 16.0976,1.21272 20.42276,1.53855 10.91634,0.82236 35.98564,2.79316 46.12728,3.62625 23.26495,1.91112 38.99103,3.02504 46.12727,3.2673 7.81531,0.26531 8.45114,0.27124 8.44711,0.0788 z"
       style="fill:#171817;stroke-width:0.234744" />
    <path
       inkscape:export-ydpi="96"
       inkscape:export-xdpi="96"
       transform="scale(0.26458333)"
       id="path38"
       d="m 209.25031,561.53403 c 0,-0.18882 8.06824,-4.93294 24.76554,-14.56212 8.90855,-5.13748 28.66229,-16.54627 43.8972,-25.35288 55.31647,-31.97592 80.20545,-46.28046 95.65834,-54.97808 10.12722,-5.70009 10.01189,-5.65261 10.53651,-4.33726 0.92081,2.30865 1.19244,7.29329 1.19834,21.99042 0.004,10.20223 -0.6539,65.90334 -0.77953,65.98911 -0.0218,0.0149 -9.17713,0.62681 -20.3451,1.35977 -33.11587,2.17344 -107.02336,7.08979 -125.47087,8.34638 -23.25763,1.58423 -29.46043,1.90946 -29.46043,1.54466 z m 24.53079,-4.00224 c 20.33779,-2.16379 32.98121,-3.12445 67.9585,-5.16356 29.61566,-1.72654 38.22052,-2.26378 52.81749,-3.29759 7.70238,-0.54551 24.42542,-2.04272 26.26294,-2.35132 l 0.79318,-0.13321 -0.13413,-33.37607 c -0.14827,-36.89631 -0.31668,-41.81302 -1.51305,-44.17432 -0.75707,-1.49426 -1.34134,-1.42315 -5.08447,0.61884 -7.68777,4.19392 -25.93709,14.67489 -54.71452,31.4237 -28.1308,16.37247 -51.50616,29.8904 -67.48901,39.0288 -16.04143,9.17188 -21.44121,12.35555 -25.64583,15.12057 -2.88036,1.89417 -3.18018,2.15866 -2.83649,2.50235 0.28196,0.28196 6.22796,0.15902 9.58539,-0.19819 z"
       style="fill:#171817;stroke-width:0.234744" />
    <path
       transform="scale(0.26458333)"
       id="path42"
       d=""
       style="fill:#171817;stroke-width:0.234744" />
    <path
       inkscape:export-ydpi="96"
       inkscape:export-xdpi="96"
       transform="scale(0.26458333)"
       id="path44"
       d="m 272.58579,743.04205 c -11.48692,-25.03837 -55.51673,-120.71152 -66.08894,-143.60582 -7.48047,-16.19909 -8.12298,-17.6611 -8.62824,-19.63332 -0.45717,-1.7845 -0.23778,-2.51601 0.86234,-2.87529 1.22073,-0.39866 10.9718,-1.16565 48.07847,-3.7817 83.33501,-5.87518 113.44596,-7.73803 125.19326,-7.74521 l 3.94779,-0.002 -0.15629,0.52818 c -1.40612,4.75195 -69.34653,129.42767 -92.07107,168.95727 -3.1478,5.47565 -7.9538,13.57009 -8.25865,13.90955 -0.0874,0.0974 -1.38283,-2.49071 -2.87867,-5.75124 z m 5.28331,-3.63948 c 6.06192,-10.11821 24.5842,-43.54473 59.02215,-106.51527 5.29565,-9.6832 12.7706,-23.2573 16.61099,-30.16465 8.9889,-16.1675 13.31357,-24.10417 16.55735,-30.3862 2.53642,-4.91215 2.59523,-5.0602 2.00984,-5.0602 -0.33167,0 -2.32133,0.15533 -4.42148,0.34517 -13.34587,1.20643 -82.55341,6.14282 -123.53809,8.81166 -24.54748,1.59848 -32.83899,2.35638 -38.67181,3.53484 -2.73218,0.55201 -3.46481,0.85475 -3.46481,1.43171 0,0.62243 2.9387,7.26616 11.52044,26.04506 7.68806,16.82332 9.33924,20.44765 35.49354,77.90799 21.25727,46.70166 24.63745,53.96754 25.99018,55.86727 0.85043,1.19432 1.23046,0.95548 2.8917,-1.81738 z"
       style="fill:#171817;stroke-width:0.234744" />
    <path
       inkscape:export-ydpi="96"
       inkscape:export-xdpi="96"
       transform="scale(0.26458333)"
       id="path46"
       d="m 505.62805,747.97074 c -0.0493,-0.16139 -0.15143,-0.64883 -0.22688,-1.08321 -0.28799,-1.65793 -14.28736,-27.58533 -47.67483,-88.29572 -27.59305,-50.17404 -34.13372,-62.2751 -40.47481,-74.88345 -5.56294,-11.06114 -7.43109,-15.54535 -7.25253,-17.40865 0.0663,-0.69236 0.18029,-0.81001 0.97436,-1.00613 2.47057,-0.61016 35.49925,1.43394 123.16319,7.6224 37.86748,2.67318 45.81497,3.45298 50.38408,4.94363 1.70231,0.55536 2.31442,1.11631 2.07325,1.89995 -0.83771,2.722 -23.2492,51.46056 -44.77697,97.37706 -22.1748,47.29653 -31.48436,66.04125 -34.83001,70.12989 -0.84046,1.0271 -1.20277,1.21487 -1.35885,0.70423 z m 3.23098,-6.7412 c 0.99806,-1.18614 1.92511,-2.99294 4.34236,-8.46316 2.74851,-6.21988 13.67548,-30.07798 23.16683,-50.58275 15.3963,-33.26168 22.62597,-48.94116 26.53784,-57.55444 11.05224,-24.33516 18.8836,-42.51068 18.8836,-43.82624 0,-0.4245 -0.4316,-0.51253 -4.69489,-0.95753 -25.55307,-2.66723 -151.6871,-11.84193 -163.08866,-11.86269 -1.49467,-0.003 -1.5084,0.0704 -0.44971,2.39349 4.96127,10.8868 66.46059,123.64153 87.55,160.51687 4.91677,8.59708 6.43088,11.03298 6.85789,11.03298 0.16975,0 0.57238,-0.31344 0.89474,-0.69653 z"
       style="fill:#171817;stroke-width:0.234744" />
    <path
       inkscape:export-ydpi="96"
       inkscape:export-xdpi="96"
       transform="scale(0.26458333)"
       id="path48"
       d="m 374.46678,886.5873 c -43.76739,-55.75746 -49.9749,-63.70155 -63.32899,-81.0455 -7.40624,-9.61902 -19.07693,-25.15303 -20.76575,-27.63978 -0.63519,-0.93529 -1.08286,-1.77255 -0.99482,-1.86058 0.24538,-0.24538 44.0403,-0.54182 62.01082,-0.41974 8.77944,0.0596 43.16363,0.22532 76.4093,0.36818 33.24567,0.14285 62.09915,0.32752 64.11884,0.41036 l 3.67217,0.15063 -8.93472,11.61985 c -10.46374,13.60838 -76.1743,98.94764 -86.53471,112.38387 -3.90748,5.06755 -7.18359,9.21372 -7.28024,9.21372 -0.0967,0 -8.36401,-10.43145 -18.3719,-23.18101 z m 21.55742,15.37576 c 8.9935,-11.08127 54.19,-69.95132 72.49392,-94.42593 15.00762,-20.06705 21.35088,-28.97004 20.9362,-29.38471 -0.39829,-0.3983 -27.31236,-0.5771 -69.05143,-0.45872 -45.18728,0.12815 -127.15997,0.60104 -127.30374,0.73439 -0.0692,0.0642 21.76473,28.12468 67.58287,86.85616 30.60338,39.22862 31.77246,40.7201 31.92102,40.72432 0.0741,0.002 1.61362,-1.81837 3.42116,-4.04551 z"
       style="fill:#171817;stroke-width:0.234744" />
    <path
       inkscape:export-ydpi="96"
       inkscape:export-xdpi="96"
       transform="scale(0.26458333)"
       id="path50"
       d="m 425.00642,891.63431 c 1.09314,-2.08225 4.21236,-6.29606 17.01598,-22.98718 7.93853,-10.34887 14.15447,-18.5234 30.49245,-40.10038 13.98858,-18.4742 21.396,-28.13748 28.45053,-37.11486 5.12924,-6.5273 10.56291,-13.08237 11.13637,-13.4347 0.88516,-0.54383 10.283,3.08398 25.55596,9.86527 11.08666,4.92255 11.69507,5.25337 5.39912,2.93576 -1.74297,-0.64161 -3.43313,-1.24253 -3.75591,-1.33537 -1.17514,-0.33801 0.0606,0.51553 3.87329,2.67533 6.08775,3.44856 5.91523,3.4314 -1.64321,-0.16349 -11.88245,-5.65143 -21.7266,-9.346 -27.09001,-10.16705 -2.49147,-0.3814 -3.25979,-0.19736 -4.27586,1.0242 -4.41059,5.30258 -55.54136,72.78187 -64.83671,85.56755 -6.14553,8.45313 -9.08813,13.16778 -8.75704,14.03059 0.20873,0.54396 1.21549,0.40215 2.79382,-0.39353 1.78151,-0.8981 97.24929,-55.52283 100.47718,-57.491 0.7802,-0.47572 1.37441,-0.62749 0.97265,-0.24844 -0.23904,0.22553 -8.54565,5.04851 -25.05483,14.54733 -15.07618,8.67432 -21.76494,12.72944 -21.76494,13.19518 0,0.48295 3.91621,-1.50019 14.50866,-7.34707 2.10529,-1.16209 3.87772,-2.06296 3.93874,-2.00194 0.061,0.061 -1.81994,1.19896 -4.17991,2.52877 -2.35997,1.3298 -12.63602,7.16958 -22.83566,12.97729 -36.44225,20.75034 -59.99539,33.96591 -60.53492,33.96591 -0.0897,0 -0.0383,-0.23768 0.11425,-0.52817 z"
       style="fill:#171817;stroke-width:0.234744" />
    <path
       inkscape:export-ydpi="96"
       inkscape:export-xdpi="96"
       transform="scale(0.26458333)"
       id="path52"
       d="m 358.24325,892.40264 c -0.72026,-0.38435 -4.03622,-2.3748 -7.36881,-4.42321 -14.56585,-8.95308 -43.10159,-25.4795 -69.97106,-40.5236 -4.81079,-2.69354 -8.69798,-4.94625 -8.6382,-5.00603 0.0598,-0.0598 0.82683,0.28814 1.70455,0.77314 13.75266,7.59933 23.46818,12.70871 23.70858,12.46831 0.29178,-0.29179 -9.65368,-6.34014 -28.98896,-17.62967 -6.36413,-3.7159 -11.52002,-6.8073 -11.45755,-6.86978 0.0625,-0.0625 5.42794,2.97801 11.92326,6.75663 25.98406,15.11611 55.81667,32.52411 61.81022,36.06765 10.9224,6.4576 15.89016,9.1686 17.57656,9.59186 0.62144,0.15597 0.65619,0.12859 0.49795,-0.39247 -0.46219,-1.52201 -5.1086,-8.2942 -11.81945,-17.22699 -3.47828,-4.62993 -44.1601,-57.71458 -50.01167,-65.25894 -5.13929,-6.62601 -11.45832,-14.57806 -13.96089,-17.56877 l -2.12971,-2.54513 -0.94528,0.15089 c -1.18628,0.18936 -4.1054,1.16352 -8.01933,2.6762 -9.3768,3.62398 -28.92914,12.51121 -33.03255,15.01446 -0.88468,0.53969 -1.66399,0.98126 -1.73179,0.98126 -0.0678,0 0.32398,-0.48522 0.87063,-1.07827 1.32456,-1.43697 1.02724,-1.76842 -0.94219,-1.05033 -0.79159,0.28863 -1.47654,0.48748 -1.52212,0.44191 -0.0799,-0.0799 4.77272,-2.36894 20.19237,-9.52471 12.7611,-5.92203 23.61543,-10.61983 24.53724,-10.61983 0.23146,0 1.09813,0.76585 1.92593,1.7019 8.45772,9.56363 61.301,77.71237 82.21389,106.02622 6.23033,8.43521 6.26311,8.49995 3.57838,7.0673 z"
       style="fill:#171817;stroke-width:0.234744" />
  </g>
</svg>
