<?xml version="1.0" encoding="UTF-8" standalone="no"?>
<svg
   xmlns:dc="http://purl.org/dc/elements/1.1/"
   xmlns:cc="http://creativecommons.org/ns#"
   xmlns:rdf="http://www.w3.org/1999/02/22-rdf-syntax-ns#"
   xmlns:svg="http://www.w3.org/2000/svg"
   xmlns="http://www.w3.org/2000/svg"
   xmlns:sodipodi="http://sodipodi.sourceforge.net/DTD/sodipodi-0.dtd"
   xmlns:inkscape="http://www.inkscape.org/namespaces/inkscape"
   width="1000"
   height="1000"
   viewBox="0 0 264.58333 264.58334"
   version="1.1"
   id="svg96"
   inkscape:version="1.0 (4035a4fb49, 2020-05-01)"
   sodipodi:docname="oil_and_rope_logo_color_square.svg"
   inkscape:export-filename="C:\Users\suso_\Downloads\oilandrope_color_square_simple.png"
   inkscape:export-xdpi="85.521889"
   inkscape:export-ydpi="85.521889">
  <defs
     id="defs90" />
  <sodipodi:namedview
     id="base"
     pagecolor="#ffffff"
     bordercolor="#666666"
     borderopacity="1.0"
     inkscape:pageopacity="0.0"
     inkscape:pageshadow="2"
     inkscape:zoom="0.65776285"
     inkscape:cx="-4.0271667"
     inkscape:cy="385.65887"
     inkscape:document-units="mm"
     inkscape:current-layer="layer4"
     inkscape:document-rotation="0"
     showgrid="false"
     units="px"
     inkscape:window-width="2256"
     inkscape:window-height="1470"
     inkscape:window-x="-11"
     inkscape:window-y="-11"
     inkscape:window-maximized="1"
     inkscape:snap-global="true"
     showguides="false" />
  <metadata
     id="metadata93">
    <rdf:RDF>
      <cc:Work
         rdf:about="">
        <dc:format>image/svg+xml</dc:format>
        <dc:type
           rdf:resource="http://purl.org/dc/dcmitype/StillImage" />
        <dc:title />
      </cc:Work>
    </rdf:RDF>
  </metadata>
  <g
     inkscape:groupmode="layer"
     id="layer6"
     inkscape:label="Pintura 3"
     sodipodi:insensitive="true"
     style="mix-blend-mode:normal">
    <path
       style="fill:none;stroke:#a6c3be;stroke-width:0.264583px;stroke-linecap:butt;stroke-linejoin:miter;stroke-opacity:1"
       d="m 79.941964,196.35863 51.889656,30.0123 88.97817,-50.70447 0.22205,-71.52977 z"
       id="path1035" />
    <path
       style="fill:#edca76;fill-opacity:1;stroke:#a6c3be;stroke-width:0.623837;stroke-miterlimit:4;stroke-dasharray:none;stroke-opacity:1"
       d="M 834.18078,395.07273 C 671.15656,501.19811 508.42883,607.78128 345.66495,714.30519 c -13.89552,9.12966 -27.83148,18.19929 -41.67761,27.40318 0.28168,2.31662 4.62074,2.86881 6.276,4.55514 62.53605,36.41143 125.09649,72.78962 187.96248,108.62558 19.82634,-10.66147 39.35537,-22.30178 59.06162,-33.34817 92.28421,-52.55736 184.54288,-105.15956 276.81244,-157.74262 0.63576,-18.1418 0.18404,-36.57869 0.40152,-54.83399 0.15999,-71.15822 0.47691,-142.31677 0.44004,-213.47503 0.0284,-0.39759 -0.47585,-0.60347 -0.76066,-0.41655 z"
       id="path1037"
       transform="scale(0.26458333)" />
    <path
       style="fill:#a6c3be;fill-opacity:1;stroke:#a6c3be;stroke-width:0.623837;stroke-miterlimit:4;stroke-dasharray:none;stroke-opacity:1"
       d="M 833.46841,395.73318 C 657.83554,510.24496 482.30967,624.93317 307.00343,739.9347 c -1.07266,0.6918 -3.96912,2.21185 -1.63,3.31794 62.0582,35.97722 123.97136,72.22557 186.36538,107.621 2.50146,0.90872 4.93321,3.33932 7.66544,3.15336 65.30452,-36.53366 130.1064,-73.96877 195.18895,-110.8998 46.31827,-26.39584 92.6374,-52.79014 138.9561,-79.18522 1.40437,-18.7836 0.60395,-37.89142 0.89728,-56.80347 0.0911,-70.32925 -0.12351,-140.6584 -0.20543,-210.98757 0.0354,-0.40838 -0.48633,-0.61772 -0.77274,-0.41776 z"
       id="path1039"
       transform="scale(0.26458333)" />
  </g>
  <g
     inkscape:groupmode="layer"
     id="layer5"
     inkscape:label="Pintura 2"
     style="display:inline"
     sodipodi:insensitive="true">
    <path
       style="fill:none;stroke:#eecb77;stroke-width:0.264583px;stroke-linecap:butt;stroke-linejoin:miter;stroke-opacity:1"
       d="M 79.941964,196.35863 221.29917,104.23511 226.21677,78.13164 184.489,55.795931 38.553572,150.8125 l -0.09259,35.78749 29.291838,16.79212 z"
       id="path1018" />
    <path
       style="fill:#edca76;fill-opacity:1;stroke:#eecb77;stroke-width:1.44162;stroke-miterlimit:4;stroke-dasharray:none;stroke-opacity:1"
       d="m 695.31781,213.51773 c -115.99405,74.56236 -231.39307,150.38706 -347.14545,225.45471 -67.2173,43.91758 -134.89551,87.41047 -201.82497,131.59328 0.14848,44.88419 -0.37625,89.94849 0.18973,134.72099 36.72894,20.60027 73.17239,42.24491 110.11719,62.13448 43.53479,-24.78727 84.93592,-53.262 127.30659,-80.00122 150.71239,-97.56499 301.14946,-195.67049 451.43504,-293.83249 6.34075,-32.55499 13.28417,-65.37446 18.18359,-97.99107 -50.75699,-26.8302 -100.72992,-55.24594 -152.2712,-80.53571 -1.9132,-0.70965 -3.89534,-1.69106 -5.99052,-1.54297 z"
       id="path1022"
       transform="scale(0.26458333)" />
  </g>
  <g
     inkscape:groupmode="layer"
     id="layer4"
     inkscape:label="Pintura 1"
     style="display:inline"
     sodipodi:insensitive="true">
    <path
       style="fill:none;stroke:#ee7a55;stroke-width:0.264583px;stroke-linecap:butt;stroke-linejoin:miter;stroke-opacity:1"
       d="M 50.270833,147.03274 187.47619,57.452381 132.18345,24.299992 38.793451,78.040901 38.553572,150.8125 Z"
       id="path1001" />
    <path
       style="fill:#ee7a55;fill-opacity:1;stroke:#ee7a55;stroke-width:0.72081;stroke-miterlimit:4;stroke-dasharray:none;stroke-opacity:1"
       d="M 498.8968,93.020509 C 381.65999,159.9069 264.83317,227.51538 147.80585,294.76996 c -1.38125,35.651 -0.96005,71.60208 -1.28533,107.37296 -0.21203,55.5211 -0.26421,111.04265 -0.39297,166.56397 3.55879,0.49596 7.65084,-2.15626 11.4004,-2.90668 11.1213,-3.84708 22.68404,-6.7808 33.51231,-11.2574 172.01951,-112.30997 344.03847,-224.6208 516.05688,-336.93246 -1.50839,-2.97057 -6.90587,-4.34373 -9.81587,-6.72809 C 631.54582,171.65611 566.25983,131.66149 500.0073,93.314873 c -0.3465,-0.121843 -0.70522,-0.480792 -1.1105,-0.294364 z"
       id="path1015"
       transform="scale(0.26458333)" />
  </g>
  <g
     inkscape:label="Logo"
     inkscape:groupmode="layer"
     id="layer1"
     style="display:inline"
     sodipodi:insensitive="true">
    <g
       style="display:inline"
       id="layer3"
       transform="matrix(1.7777973,0,0,1.7777973,-220.49,-275.77445)">
      <path
         id="path229"
         d="m 171.94428,275.19797 -26.28595,-15.1152 -0.0458,-28.22971 c -0.0252,-15.52635 0.0169,-29.26571 0.0935,-30.53191 l 0.13931,-2.3022 26.26565,-15.11447 26.26565,-15.11446 23.59348,13.50199 c 12.97641,7.4261 24.87737,14.23909 26.44658,15.13999 l 2.8531,1.63799 -0.002,30.43352 -0.002,30.43352 -26.21115,15.15418 c -14.41614,8.3348 -26.34894,15.16943 -26.51736,15.18807 -0.16842,0.0186 -12.13489,-6.76795 -26.59217,-15.08131 z m 23.199,-3.14878 v -8.18696 L 180.3165,262.8663 c -8.15473,-0.54776 -15.31087,-1.04302 -15.90253,-1.10058 -0.84507,-0.0822 -1.07545,-0.0488 -1.07429,0.15586 7.9e-4,0.14892 6.79306,4.12714 15.85576,9.28676 8.71986,4.96444 15.87534,9.0266 15.90107,9.02703 0.0257,2.7e-4 0.0468,-3.68335 0.0468,-8.18618 z m 22.73127,-1.17009 c 8.4377,-4.76119 15.37776,-8.68823 15.42234,-8.72675 0.0446,-0.0385 0.002,-0.14385 -0.0935,-0.23406 -0.19258,-0.18089 -31.78332,1.87595 -31.99022,2.08286 -0.0695,0.0694 -0.0638,3.75103 0.0125,8.18128 l 0.13882,8.05501 0.5844,-0.35081 c 0.32142,-0.19295 7.48797,-4.24634 15.92567,-9.00753 z m -25.35051,-13.42306 c 0,-0.24481 -21.46182,-36.97693 -21.63946,-37.03614 -0.19057,-0.0635 -17.14472,34.19065 -16.99621,34.33916 0.0528,0.0528 8.62003,0.70234 19.03839,1.44352 10.41835,0.74118 19.0898,1.35846 19.26987,1.37172 0.18007,0.0133 0.32741,-0.04 0.32741,-0.11826 z m 33.3429,-1.24173 c 9.74655,-0.63881 17.7661,-1.20656 17.82123,-1.26169 0.0551,-0.0551 -3.74823,-7.85996 -8.4519,-17.34407 -6.54871,-13.20432 -8.60171,-17.1887 -8.7638,-17.00845 -0.25382,0.28226 -21.36369,36.27667 -21.53079,36.71213 -0.1039,0.27074 0.0611,0.29034 1.54396,0.18334 0.91317,-0.0659 9.63475,-0.64246 19.3813,-1.28126 z m -15.86757,-20.89369 c 6.13208,-10.40062 11.14924,-18.98799 11.14924,-19.08305 0,-0.10477 -8.91518,-0.17283 -22.63774,-0.17283 -12.45075,0 -22.63772,0.0626 -22.63772,0.13914 0,0.2252 22.71825,38.02694 22.85359,38.02694 0.0679,0 5.14055,-8.50959 11.27263,-18.9102 z m 35.65785,-10.76486 v -18.63684 l -0.42095,0.2692 c -0.23152,0.14806 -3.59912,2.05994 -7.48355,4.24862 -3.88442,2.18868 -7.06259,4.05001 -7.06259,4.13628 0,0.42278 14.50066,28.61957 14.71808,28.61957 0.20562,0 0.24901,-3.24738 0.24901,-18.63683 z m -86.07486,4.13202 c 4.2558,-8.588 6.9339,-14.19571 6.82873,-14.2988 -0.20356,-0.19954 -13.78597,-8.01162 -14.21679,-8.17694 -0.2658,-0.102 -0.28206,1.59503 -0.17261,18.01302 0.0665,9.9691 0.15363,18.23087 0.19369,18.3595 0.0401,0.12862 0.13863,0.23353 0.21904,0.23314 0.0804,-2.7e-4 3.29697,-6.35886 7.14794,-14.12992 z m 60.6308,-18.60596 c 0,-0.18456 -21.16593,-31.50287 -21.60092,-31.96196 -0.1895,-0.2 -2.27757,2.76332 -11.06539,15.70359 -5.95749,8.77256 -10.85974,16.0182 -10.89388,16.10141 -0.0341,0.0832 8.72161,0.17314 19.45722,0.19982 10.73562,0.0267 20.55062,0.0692 21.81113,0.0944 1.40175,0.0281 2.29184,-0.0252 2.29184,-0.13727 z m 17.07926,-6.55202 c 2.95111,-1.59494 5.34187,-2.9751 5.3128,-3.06704 -0.06,-0.18966 -32.06175,-18.07398 -32.34114,-18.07398 -0.0996,0 -0.15393,0.1176 -0.12065,0.26133 0.0333,0.14374 4.05951,6.03168 8.9472,13.08432 l 8.88671,12.82299 1.97472,-1.06388 c 1.08609,-0.58513 4.38926,-2.36881 7.34036,-3.96374 z m -58.90875,-7.97742 c 5.00433,-7.20095 8.85351,-12.91264 8.76298,-13.00317 -0.18008,-0.18007 -32.07595,17.41352 -31.99661,17.64917 0.051,0.15146 13.98109,8.19572 14.19237,8.19572 0.0643,0 4.13283,-5.77877 9.04126,-12.84172 z"
         style="fill:#171817;stroke-width:0.187089" />
      <path
         transform="scale(0.26458333)"
         id="path233"
         d=""
         style="fill:#171817;stroke-width:0.0883883" />
    </g>
  </g>
</svg>
